<?xml version="1.0" encoding="UTF-8" standalone="no"?>
<!-- Generator: Adobe Illustrator 22.0.1, SVG Export Plug-In . SVG Version: 6.00 Build 0)  -->

<svg
   xmlns:dc="http://purl.org/dc/elements/1.1/"
   xmlns:cc="http://creativecommons.org/ns#"
   xmlns:rdf="http://www.w3.org/1999/02/22-rdf-syntax-ns#"
   xmlns:svg="http://www.w3.org/2000/svg"
   xmlns="http://www.w3.org/2000/svg"
   xmlns:sodipodi="http://sodipodi.sourceforge.net/DTD/sodipodi-0.dtd"
   xmlns:inkscape="http://www.inkscape.org/namespaces/inkscape"
   version="1.1"
   id="Calque_1"
   x="0px"
   y="0px"
   viewBox="0 0 512 512"
   style="enable-background:new 0 0 512 512;"
   xml:space="preserve"
   sodipodi:docname="ic_profiles_speech_bleu.svg"
   inkscape:version="0.92.3 (2405546, 2018-03-11)"
   inkscape:export-filename="C:\Users\odce6243\Documents\Den\Accessibilité\SP4_Part1\Tél mobile Universel\TelMultiprofils\Design graphique\Pictos\all_icons\ic_profiles\ic_profiles_speech_fond bleu.png"
   inkscape:export-xdpi="96"
   inkscape:export-ydpi="96"><metadata
   id="metadata23"><rdf:RDF><cc:Work
       rdf:about=""><dc:format>image/svg+xml</dc:format><dc:type
         rdf:resource="http://purl.org/dc/dcmitype/StillImage" /><dc:title>ic_profiles_speech_bleu</dc:title></cc:Work></rdf:RDF></metadata><defs
   id="defs21" /><sodipodi:namedview
   pagecolor="#ffffff"
   bordercolor="#666666"
   borderopacity="1"
   objecttolerance="10"
   gridtolerance="10"
   guidetolerance="10"
   inkscape:pageopacity="0"
   inkscape:pageshadow="2"
   inkscape:window-width="1600"
   inkscape:window-height="838"
   id="namedview19"
   showgrid="false"
   inkscape:zoom="0.65186406"
   inkscape:cx="-246.97051"
   inkscape:cy="231.20237"
   inkscape:window-x="-8"
   inkscape:window-y="-8"
   inkscape:window-maximized="1"
   inkscape:current-layer="g16" />
<title
   id="title2">ic_profiles_speech_bleu</title>
<g
   id="g16">
	<path
   d="M 256,0 C 114.6,0 0,114.7 0,256 0,397.3 114.6,512 256,512 397.4,512 512,397.4 512,256 512,114.6 397.4,0 256,0 Z"
   id="path4"
   inkscape:connector-curvature="0"
   sodipodi:nodetypes="sssss"
   style="fill:#10499e;fill-opacity:1" />
	
	
	
	
	
<g
   transform="matrix(1.4088484,0,0,1.3753095,-105.4284,-82.547371)"
   id="g6"
   style="fill:#ffffff;fill-opacity:1"><g
     id="g4"
     style="fill:#ffffff;fill-opacity:1"><path
       inkscape:connector-curvature="0"
       d="m 259.4,324.1 c -38.4,0.2 -69.8,-11.1 -98.5,-30.7 -13.1,-8.9 -24.7,-19.4 -34,-32.3 -2.2,-3.1 -4.3,-6.5 -6.2,-9.8 -0.2,-0.5 -0.3,-1.3 0,-1.7 9.7,-14.2 20.3,-27.6 33.3,-39 10.3,-9 21.7,-16 34.9,-19.9 18.6,-5.5 35.7,-2.5 51.8,8.1 1.9,1.2 3.8,2.6 5.6,3.8 6,4.2 14.2,4.2 20.1,0 7.7,-5.6 15.9,-10.3 25.1,-12.8 11.4,-3.2 22.6,-2 33.7,1.3 12.6,3.8 23.4,10.8 33.3,19.3 12.5,10.8 22.6,23.7 32.1,37.1 1.5,2.1 1.5,3.6 0.2,5.6 -7.1,11.8 -16.2,21.8 -26.8,30.6 -20.6,17.3 -43.9,29.2 -69.9,35.8 -12.5,3.3 -25.2,4.7 -34.7,4.6 z m -4.1,-53 c 17.7,0 34.3,-1.3 50.7,-4.6 8.8,-1.7 17.6,-3.9 25.8,-7.8 2.3,-1.1 4.5,-2.5 6.5,-4.1 2,-1.5 1.9,-3.3 0,-5 -1.5,-1.3 -3.2,-2.4 -5,-3.3 -5.7,-2.9 -11.8,-4.8 -18,-6.4 -15.8,-4 -31.8,-5.9 -48,-6.5 -20.2,-0.7 -40.2,0.5 -60,4.3 -8.9,1.8 -17.7,3.9 -25.9,7.8 -2.2,1.1 -4.4,2.4 -6.3,3.9 -2.2,1.7 -2.1,3.4 0,5.1 1.5,1.2 3.2,2.4 5,3.3 5.6,2.9 11.8,4.8 17.9,6.3 19,5.2 38.5,6.9 57.3,7 z"
       id="path2"
       style="fill:#ffffff;fill-opacity:1" /></g></g></g>
</svg>